<svg xmlns="http://www.w3.org/2000/svg" xmlns:xlink="http://www.w3.org/1999/xlink" width="500" zoomAndPan="magnify" viewBox="0 0 375 374.999991" height="500" preserveAspectRatio="xMidYMid meet" version="1.0"><defs><g/></defs><g fill="#ffffff" fill-opacity="1"><g transform="translate(85.982647, 180.750046)"><g><path d="M 42.191406 -27.613281 L 42.191406 -37.191406 L 18.035156 -37.191406 L 18.035156 -43.253906 L 8.460938 -43.253906 L 8.460938 -37.191406 L 2.660156 -37.191406 L 2.660156 -27.613281 L 8.460938 -27.613281 L 8.460938 -23.355469 L 2.660156 -23.355469 L 2.660156 -13.726562 L 32.613281 -13.726562 L 32.613281 -9.578125 L 2.660156 -9.578125 L 2.660156 0 L 42.191406 0 L 42.191406 -23.355469 L 18.035156 -23.355469 L 18.035156 -27.613281 Z M 42.191406 -27.613281 "/></g></g></g><g fill="#ffffff" fill-opacity="1"><g transform="translate(130.992423, 180.750046)"><g><path d="M 32.933594 -37.191406 L 23.355469 -37.191406 L 23.355469 -9.097656 L 12.238281 -9.097656 L 12.238281 -37.191406 L 2.660156 -37.191406 L 2.660156 0 L 32.933594 0 Z M 32.933594 -37.191406 "/></g></g></g><g fill="#ffffff" fill-opacity="1"><g transform="translate(166.744879, 180.750046)"><g><path d="M 42.191406 -27.613281 L 42.191406 -37.191406 L 18.035156 -37.191406 L 18.035156 -43.253906 L 8.460938 -43.253906 L 8.460938 -37.191406 L 2.660156 -37.191406 L 2.660156 -27.613281 L 8.460938 -27.613281 L 8.460938 -23.355469 L 2.660156 -23.355469 L 2.660156 -13.726562 L 32.613281 -13.726562 L 32.613281 -9.578125 L 2.660156 -9.578125 L 2.660156 0 L 42.191406 0 L 42.191406 -23.355469 L 18.035156 -23.355469 L 18.035156 -27.613281 Z M 42.191406 -27.613281 "/></g></g></g><g fill="#ffffff" fill-opacity="1"><g transform="translate(211.754649, 180.750046)"><g><path d="M 23.410156 -37.191406 L 23.410156 -25.058594 L 12.238281 -25.058594 L 12.238281 -37.191406 L 2.660156 -37.191406 L 2.660156 0 L 12.238281 0 L 12.238281 -15.484375 L 23.410156 -15.484375 L 23.410156 0 L 32.988281 0 L 32.988281 -37.191406 Z M 23.410156 -37.191406 "/></g></g></g><g fill="#ffffff" fill-opacity="1"><g transform="translate(247.560303, 180.750046)"><g><path d="M 38.734375 -27.613281 L 38.734375 -37.191406 L 2.660156 -37.191406 L 2.660156 -27.613281 L 15.910156 -27.613281 L 15.910156 -9.578125 L 2.660156 -9.578125 L 2.660156 0 L 38.734375 0 L 38.734375 -9.578125 L 25.484375 -9.578125 L 25.484375 -27.613281 Z M 38.734375 -27.613281 "/></g></g></g><g fill="#ffffff" fill-opacity="1"><g transform="translate(87.25999, 228.000043)"><g><path d="M 16.441406 -37.191406 L 16.441406 -43.253906 L 6.863281 -43.253906 L 6.863281 -37.191406 L 1.0625 -37.191406 L 1.0625 -27.613281 L 6.863281 -27.613281 L 6.863281 -20.003906 L 1.0625 -20.003906 L 1.0625 -10.429688 L 6.863281 -10.429688 L 6.863281 0.0546875 L 16.441406 0.0546875 L 16.441406 -10.429688 L 40.59375 -10.429688 L 40.59375 -37.191406 Z M 31.019531 -20.003906 L 16.441406 -20.003906 L 16.441406 -27.613281 L 31.019531 -27.613281 Z M 31.019531 -20.003906 "/></g></g></g><g fill="#ffffff" fill-opacity="1"><g transform="translate(130.673682, 228.000043)"><g><path d="M 32.933594 -37.191406 L 23.355469 -37.191406 L 23.355469 -9.097656 L 12.238281 -9.097656 L 12.238281 -37.191406 L 2.660156 -37.191406 L 2.660156 0 L 32.933594 0 Z M 32.933594 -37.191406 "/></g></g></g><g fill="#ffffff" fill-opacity="1"><g transform="translate(166.426138, 228.000043)"><g><path d="M 34.796875 -37.191406 L 2.660156 -37.191406 L 2.660156 -27.613281 L 7.34375 -27.613281 L 7.34375 -15.214844 L 16.972656 -15.214844 L 16.972656 -27.613281 L 28.464844 -27.613281 L 34.636719 -9.578125 L 2.660156 -9.578125 L 2.660156 0 L 44.214844 0 L 44.214844 -9.578125 Z M 34.796875 -37.191406 "/></g></g></g><g fill="#ffffff" fill-opacity="1"><g transform="translate(212.127567, 228.000043)"><g><path d="M 38.734375 -27.613281 L 38.734375 -37.191406 L 2.660156 -37.191406 L 2.660156 -27.613281 L 12.238281 -27.613281 L 12.238281 -23.355469 L 2.660156 -23.355469 L 2.660156 0 L 38.734375 0 L 38.734375 -9.578125 L 12.238281 -9.578125 L 12.238281 -13.78125 L 38.734375 -13.78125 L 38.734375 -23.355469 L 21.8125 -23.355469 L 21.8125 -27.613281 Z M 38.734375 -27.613281 "/></g></g></g><g fill="#ffffff" fill-opacity="1"><g transform="translate(253.679139, 228.000043)"><g><path d="M 21.8125 -37.191406 L 21.8125 -29.476562 L 12.238281 -37.191406 L 2.660156 -37.191406 L 2.660156 0 L 12.238281 0 L 12.238281 -25.75 L 21.8125 -18.035156 L 21.8125 0 L 31.390625 0 L 31.390625 -37.191406 Z M 21.8125 -37.191406 "/></g></g></g></svg>