<svg xmlns="http://www.w3.org/2000/svg" xmlns:xlink="http://www.w3.org/1999/xlink" width="500" zoomAndPan="magnify" viewBox="0 0 375 374.999991" height="500" preserveAspectRatio="xMidYMid meet" version="1.0"><defs><g/></defs><g fill="#ffffff" fill-opacity="1"><g transform="translate(21.551679, 176.465564)"><g><path d="M 68.972656 -45.140625 L 68.972656 -60.796875 L 29.484375 -60.796875 L 29.484375 -70.710938 L 13.828125 -70.710938 L 13.828125 -60.796875 L 4.347656 -60.796875 L 4.347656 -45.140625 L 13.828125 -45.140625 L 13.828125 -38.183594 L 4.347656 -38.183594 L 4.347656 -22.441406 L 53.316406 -22.441406 L 53.316406 -15.65625 L 4.347656 -15.65625 L 4.347656 0 L 68.972656 0 L 68.972656 -38.183594 L 29.484375 -38.183594 L 29.484375 -45.140625 Z M 68.972656 -45.140625 "/></g></g></g><g fill="#ffffff" fill-opacity="1"><g transform="translate(95.13048, 176.465564)"><g><path d="M 53.839844 -60.796875 L 38.183594 -60.796875 L 38.183594 -14.871094 L 20.003906 -14.871094 L 20.003906 -60.796875 L 4.347656 -60.796875 L 4.347656 0 L 53.839844 0 Z M 53.839844 -60.796875 "/></g></g></g><g fill="#ffffff" fill-opacity="1"><g transform="translate(153.576068, 176.465564)"><g><path d="M 68.972656 -45.140625 L 68.972656 -60.796875 L 29.484375 -60.796875 L 29.484375 -70.710938 L 13.828125 -70.710938 L 13.828125 -60.796875 L 4.347656 -60.796875 L 4.347656 -45.140625 L 13.828125 -45.140625 L 13.828125 -38.183594 L 4.347656 -38.183594 L 4.347656 -22.441406 L 53.316406 -22.441406 L 53.316406 -15.65625 L 4.347656 -15.65625 L 4.347656 0 L 68.972656 0 L 68.972656 -38.183594 L 29.484375 -38.183594 L 29.484375 -45.140625 Z M 68.972656 -45.140625 "/></g></g></g><g fill="#ffffff" fill-opacity="1"><g transform="translate(227.154859, 176.465564)"><g><path d="M 38.269531 -60.796875 L 38.269531 -40.964844 L 20.003906 -40.964844 L 20.003906 -60.796875 L 4.347656 -60.796875 L 4.347656 0 L 20.003906 0 L 20.003906 -25.308594 L 38.269531 -25.308594 L 38.269531 0 L 53.925781 0 L 53.925781 -60.796875 Z M 38.269531 -60.796875 "/></g></g></g><g fill="#ffffff" fill-opacity="1"><g transform="translate(285.687411, 176.465564)"><g><path d="M 63.320312 -45.140625 L 63.320312 -60.796875 L 4.347656 -60.796875 L 4.347656 -45.140625 L 26.003906 -45.140625 L 26.003906 -15.65625 L 4.347656 -15.65625 L 4.347656 0 L 63.320312 0 L 63.320312 -15.65625 L 41.660156 -15.65625 L 41.660156 -45.140625 Z M 63.320312 -45.140625 "/></g></g></g><g fill="#ffffff" fill-opacity="1"><g transform="translate(23.63979, 253.706519)"><g><path d="M 26.875 -60.796875 L 26.875 -70.710938 L 11.21875 -70.710938 L 11.21875 -60.796875 L 1.738281 -60.796875 L 1.738281 -45.140625 L 11.21875 -45.140625 L 11.21875 -32.703125 L 1.738281 -32.703125 L 1.738281 -17.046875 L 11.21875 -17.046875 L 11.21875 0.0859375 L 26.875 0.0859375 L 26.875 -17.046875 L 66.363281 -17.046875 L 66.363281 -60.796875 Z M 50.707031 -32.703125 L 26.875 -32.703125 L 26.875 -45.140625 L 50.707031 -45.140625 Z M 50.707031 -32.703125 "/></g></g></g><g fill="#ffffff" fill-opacity="1"><g transform="translate(94.609425, 253.706519)"><g><path d="M 53.839844 -60.796875 L 38.183594 -60.796875 L 38.183594 -14.871094 L 20.003906 -14.871094 L 20.003906 -60.796875 L 4.347656 -60.796875 L 4.347656 0 L 53.839844 0 Z M 53.839844 -60.796875 "/></g></g></g><g fill="#ffffff" fill-opacity="1"><g transform="translate(153.055013, 253.706519)"><g><path d="M 56.882812 -60.796875 L 4.347656 -60.796875 L 4.347656 -45.140625 L 12.003906 -45.140625 L 12.003906 -24.875 L 27.746094 -24.875 L 27.746094 -45.140625 L 46.53125 -45.140625 L 56.621094 -15.65625 L 4.347656 -15.65625 L 4.347656 0 L 72.277344 0 L 72.277344 -15.65625 Z M 56.882812 -60.796875 "/></g></g></g><g fill="#ffffff" fill-opacity="1"><g transform="translate(227.764478, 253.706519)"><g><path d="M 63.320312 -45.140625 L 63.320312 -60.796875 L 4.347656 -60.796875 L 4.347656 -45.140625 L 20.003906 -45.140625 L 20.003906 -38.183594 L 4.347656 -38.183594 L 4.347656 0 L 63.320312 0 L 63.320312 -15.65625 L 20.003906 -15.65625 L 20.003906 -22.527344 L 63.320312 -22.527344 L 63.320312 -38.183594 L 35.660156 -38.183594 L 35.660156 -45.140625 Z M 63.320312 -45.140625 "/></g></g></g><g fill="#ffffff" fill-opacity="1"><g transform="translate(295.690051, 253.706519)"><g><path d="M 35.660156 -60.796875 L 35.660156 -48.183594 L 20.003906 -60.796875 L 4.347656 -60.796875 L 4.347656 0 L 20.003906 0 L 20.003906 -42.097656 L 35.660156 -29.484375 L 35.660156 0 L 51.316406 0 L 51.316406 -60.796875 Z M 35.660156 -60.796875 "/></g></g></g></svg>